# xmcd
#
# Track frame offsets:
#	150
#	12130
#	26226
#	33491
#	43023
#	56822
#	71202
#	82675
#	98644
#	110071
#
# Disc length: 1562 seconds
#
# Revision: 0
# Processed by: cddbd v1.5.1PL0 Copyright (c) Steve Scherf et al.
# Submitted via: dBpowerAMP V4.0
#
DISCID=8006180a
DTITLE=Carl Lee - Tennessee Country
DYEAR=2004
DGENRE=Country
TTITLE0=Smoky Mountain Air
TTITLE1=Those Three Words
TTITLE2=Honey Do
TTITLE3=I Don't Know
TTITLE4=Mrs. Whiskey
TTITLE5=Like Kin
TTITLE6=Why Can't You Love Me?
TTITLE7=Catch You In
TTITLE8=For Me
TTITLE9=Tennessee Country
EXTD=
EXTT0=
EXTT1=
EXTT2=
EXTT3=
EXTT4=
EXTT5=
EXTT6=
EXTT7=
EXTT8=
EXTT9=
PLAYORDER=
